<svg width="23" height="20" viewBox="0 0 23 20" fill="none" xmlns="http://www.w3.org/2000/svg">
  <path fill-rule="evenodd" clip-rule="evenodd"
        d="M1.70361 11.0741C1.70361 10.6036 2.085 10.2222 2.55547 10.2222H8.51843C8.98889 10.2222 9.37028 10.6036 9.37028 11.0741C9.37028 11.5445 8.98889 11.9259 8.51843 11.9259H3.40732V18.7407C3.40732 19.2112 3.02593 19.5926 2.55547 19.5926C2.085 19.5926 1.70361 19.2112 1.70361 18.7407V11.0741Z"
        fill="black"/>
  <path fill-rule="evenodd" clip-rule="evenodd"
        d="M0 18.7408C0 18.2703 0.381387 17.8889 0.851852 17.8889H22.1481C22.6186 17.8889 23 18.2703 23 18.7408C23 19.2112 22.6186 19.5926 22.1481 19.5926H0.851852C0.381387 19.5926 0 19.2112 0 18.7408Z"
        fill="black"/>
  <path fill-rule="evenodd" clip-rule="evenodd"
        d="M7.6665 5.96294C7.6665 5.49247 8.04789 5.11108 8.51836 5.11108H14.4813C14.9518 5.11108 15.3332 5.49247 15.3332 5.96294C15.3332 6.4334 14.9518 6.81479 14.4813 6.81479H9.37021V18.7407C9.37021 19.2112 8.98882 19.5926 8.51836 19.5926C8.04789 19.5926 7.6665 19.2112 7.6665 18.7407V5.96294Z"
        fill="black"/>
  <path fill-rule="evenodd" clip-rule="evenodd"
        d="M13.6296 0.851852C13.6296 0.381387 14.011 0 14.4815 0H20.4445C20.9149 0 21.2963 0.381387 21.2963 0.851852V18.7407C21.2963 19.2112 20.9149 19.5926 20.4445 19.5926H14.4815C14.011 19.5926 13.6296 19.2112 13.6296 18.7407V0.851852ZM15.3333 1.7037V17.8889H19.5926V1.7037H15.3333Z"
        fill="black"/>
</svg>
