<svg width="24" height="24" viewBox="0 0 24 24" fill="white" xmlns="http://www.w3.org/2000/svg">
  <path
    d="M10.75 14C11.3467 14 11.919 14.2371 12.341 14.659C12.7629 15.081 13 15.6533 13 16.25V17.752L12.992 17.86C12.682 19.987 10.772 21.009 7.567 21.009C4.374 21.009 2.433 19.999 2.014 17.897L2 17.75V16.25C2 15.6533 2.23705 15.081 2.65901 14.659C3.08097 14.2371 3.65326 14 4.25 14H10.75ZM10.75 15.5H4.25C4.05109 15.5 3.86032 15.579 3.71967 15.7197C3.57902 15.8603 3.5 16.0511 3.5 16.25V17.67C3.78 18.87 5.05 19.509 7.567 19.509C10.083 19.509 11.297 18.878 11.5 17.693V16.25C11.5 16.0511 11.421 15.8603 11.2803 15.7197C11.1397 15.579 10.9489 15.5 10.75 15.5ZM7.5 6C7.95963 6 8.41475 6.09053 8.83939 6.26642C9.26403 6.44231 9.64987 6.70012 9.97487 7.02513C10.2999 7.35013 10.5577 7.73597 10.7336 8.16061C10.9095 8.58525 11 9.04037 11 9.5C11 9.95963 10.9095 10.4148 10.7336 10.8394C10.5577 11.264 10.2999 11.6499 9.97487 11.9749C9.64987 12.2999 9.26403 12.5577 8.83939 12.7336C8.41475 12.9095 7.95963 13 7.5 13C6.57174 13 5.6815 12.6313 5.02513 11.9749C4.36875 11.3185 4 10.4283 4 9.5C4 8.57174 4.36875 7.6815 5.02513 7.02513C5.6815 6.36875 6.57174 6 7.5 6ZM19.75 2C20.3467 2 20.919 2.23705 21.341 2.65901C21.7629 3.08097 22 3.65326 22 4.25V7.75C22 8.04547 21.9418 8.33805 21.8287 8.61104C21.7157 8.88402 21.5499 9.13206 21.341 9.34099C21.1321 9.54992 20.884 9.71566 20.611 9.82873C20.3381 9.9418 20.0455 10 19.75 10H18.295L16.129 12.141C15.9537 12.3144 15.731 12.4321 15.489 12.4792C15.2469 12.5263 14.9964 12.5009 14.7688 12.4059C14.5412 12.311 14.3468 12.1509 14.21 11.9458C14.0732 11.7406 14.0001 11.4996 14 11.253V9.986C13.45 9.92451 12.9419 9.66246 12.573 9.24996C12.204 8.83745 12 8.30344 12 7.75V4.25C12 3.65326 12.2371 3.08097 12.659 2.65901C13.081 2.23705 13.6533 2 14.25 2H19.75ZM7.5 7.5C6.96957 7.5 6.46086 7.71071 6.08579 8.08579C5.71071 8.46086 5.5 8.96957 5.5 9.5C5.5 10.0304 5.71071 10.5391 6.08579 10.9142C6.46086 11.2893 6.96957 11.5 7.5 11.5C8.03043 11.5 8.53914 11.2893 8.91421 10.9142C9.28929 10.5391 9.5 10.0304 9.5 9.5C9.5 8.96957 9.28929 8.46086 8.91421 8.08579C8.53914 7.71071 8.03043 7.5 7.5 7.5ZM19.75 3.5H14.25C14.0511 3.5 13.8603 3.57902 13.7197 3.71967C13.579 3.86032 13.5 4.05109 13.5 4.25V7.75C13.5 8.164 13.836 8.5 14.25 8.5H15.499V10.654L17.68 8.5H19.751C19.9499 8.5 20.1407 8.42098 20.2813 8.28033C20.422 8.13968 20.501 7.94891 20.501 7.75V4.25C20.501 4.05109 20.422 3.86032 20.2813 3.71967C20.1407 3.57902 19.9499 3.5 19.751 3.5H19.75Z"/>
</svg>
